# xmcd
#
# Track frame offsets:
#  150
#  11835
#  24940
#  34952
#  46810
#  58705
#  70275
#  79300
#  91332
#  98635
#  110227
#  121142
#
# Disc length: 1796 seconds
#
# Revision: 0
# Processed by: cddbd v1.5.1PL2 Copyright (c) Steve Scherf et al.
# Submitted via: Collectorz.com_Music_Collector 6.9
#
DISCID=9a07020c
DTITLE=Charley Pride - There's a Little Bit of Hank in Me
DYEAR=2003
DGENRE=
TTITLE0=There's a Little Bit of Hank in Me
TTITLE1=My Son Calls Another Man Daddy
TTITLE2=Moanin' the Blues
TTITLE3=Mansion on the Hill
TTITLE4=Mind Your Own Business
TTITLE5=I Can't Help It (If I'm Still in Love With You)
TTITLE6=Honky Tonk Blues
TTITLE7=I'm So Lonesome I Could Cry
TTITLE8=Low Down Blues
TTITLE9=I Could Never Be Ashamed of You
TTITLE10=Why Don't You Love Me
TTITLE11=You Win Again
EXTD=
EXTT0=
EXTT1=
EXTT2=
EXTT3=
EXTT4=
EXTT5=
EXTT6=
EXTT7=
EXTT8=
EXTT9=
EXTT10=
EXTT11=
PLAYORDER=
